<?xml version="1.0" encoding="UTF-8" standalone="no"?>
<svg width="24" height="24" version="1.1" xmlns="http://www.w3.org/2000/svg">
  <defs>
    <clipPath clipPathUnits="userSpaceOnUse" id="clip1">
      <path d="m 12,0 c -6.627417,0 -12,5.3726 -12,12 0,6.6274 5.372583,12 12,12 6.627417,0 12,-5.3726 12,-12 0,-6.6274 -5.372583,-12 -12,-12 z m 0,9 c 1.656854,0 3,1.3431 3,3 0,1.6569 -1.343146,3 -3,3 -1.656854,0 -3,-1.3431 -3,-3 0,-1.6569 1.343146,-3 3,-3 z"/>
    </clipPath>
  </defs>
  <g clip-path="url(#clip1)" style="fill:#000000;fill-opacity:1;stroke:none">
    <path
       id="path3786"
       d="M 20,12 A 8,8 0 1 1 4,12 8,8 0 1 1 20,12 z" />
    <rect x="10" y="2" width="4" height="20"/>
    <rect x="-14" y="2" height="20" width="4" transform="matrix(0,-1,1,0,0,0)"/>
    <path
       d="M 20,12 A 8,8 0 1 1 4,12 8,8 0 1 1 20,12 z"
       id="path3014"
       style="fill:#000000;fill-opacity:1;stroke:none"/>
    <g transform="matrix(0.70710678,0.70710678,-0.70710678,0.70710678,12,-4.9705627)">
      <rect x="10" y="2" width="4" height="20"/>
      <rect x="-14" y="2" width="4" height="20" transform="matrix(0,-1,1,0,0,0)" />
    </g>
  </g>
</svg>
