<?xml version="1.0" encoding="UTF-8" standalone="no"?>
<!-- Created with Inkscape (http://www.inkscape.org/) -->

<svg
   xmlns:dc="http://purl.org/dc/elements/1.1/"
   xmlns:cc="http://creativecommons.org/ns#"
   xmlns:rdf="http://www.w3.org/1999/02/22-rdf-syntax-ns#"
   xmlns:svg="http://www.w3.org/2000/svg"
   xmlns="http://www.w3.org/2000/svg"
   xmlns:sodipodi="http://sodipodi.sourceforge.net/DTD/sodipodi-0.dtd"
   xmlns:inkscape="http://www.inkscape.org/namespaces/inkscape"
   width="24"
   height="24"
   id="svg2"
   version="1.1"
   inkscape:version="0.48.4 r9939"
   sodipodi:docname="pencil_off.svg">
  <defs
     id="defs4">
    <mask
       maskUnits="userSpaceOnUse"
       id="mask3857">
      <g
         id="g3859">
        <rect
           transform="translate(0,1028.3622)"
           y="0"
           x="0"
           height="24"
           width="24"
           id="rect3861"
           style="fill:#ffffff;fill-opacity:1;stroke:none" />
        <g
           clip-path="none"
           id="g3863"
           mask="none">
          <path
             sodipodi:nodetypes="cccccc"
             inkscape:connector-curvature="0"
             id="path3865"
             d="m 17,1030.3622 5,5 -12,12 -7,2 2,-7 z"
             style="fill:none;stroke:#000000;stroke-width:1px;stroke-linecap:butt;stroke-linejoin:miter;stroke-opacity:1" />
          <path
             style="fill:#000000;fill-opacity:1;stroke:none"
             d="m 17,1030.3622 5,5 -12,12 -5,-5 z"
             id="path3867"
             inkscape:connector-curvature="0"
             sodipodi:nodetypes="ccccc" />
          <path
             style="fill:#000000;fill-opacity:1;stroke:none"
             d="m 6,1048.3622 -3,1 1,-3 z"
             id="path3869"
             inkscape:connector-curvature="0"
             sodipodi:nodetypes="cccc" />
        </g>
      </g>
    </mask>
    <clipPath
       clipPathUnits="userSpaceOnUse"
       id="clipPath3012">
      <path
         style="fill:#ffffff;fill-opacity:1;stroke:none"
         d="M 0,0 0,24 24,24 24,0 0,0 z M 17,2 22,7 10,19 5,14 17,2 z"
         id="path3014"
         inkscape:connector-curvature="0" />
    </clipPath>
    <clipPath
       clipPathUnits="userSpaceOnUse"
       id="clipPath3022">
      <path
         style="fill:#ffffff;fill-opacity:1;stroke:none"
         d="m 0,1028.3622 0,24 24,0 0,-24 -24,0 z m 3,1 20,20 -2,2 -20,-20 2,-2 z"
         id="path3024"
         inkscape:connector-curvature="0" />
    </clipPath>
    <clipPath
       clipPathUnits="userSpaceOnUse"
       id="clipPath3814">
      <path
         style="fill:#ff0000;fill-opacity:1;stroke:none"
         d="m 0,1028.3622 0,24 24,0 0,-24 -24,0 z m 16.875,1.4688 a 0.53576784,0.53576784 0 0 1 0.5,0.1562 l 5,5 a 0.53576784,0.53576784 0 0 1 0,0.75 l -12,12 a 0.53576784,0.53576784 0 0 1 -0.75,0 l -5,-5 a 0.53576784,0.53576784 0 0 1 0,-0.75 l 12,-12 a 0.53576784,0.53576784 0 0 1 0.25,-0.1562 z"
         id="path3816"
         inkscape:connector-curvature="0" />
    </clipPath>
  </defs>
  <sodipodi:namedview
     id="base"
     pagecolor="#ffffff"
     bordercolor="#666666"
     borderopacity="1.0"
     inkscape:pageopacity="0.0"
     inkscape:pageshadow="2"
     inkscape:zoom="31.678384"
     inkscape:cx="12.033137"
     inkscape:cy="11.618829"
     inkscape:document-units="px"
     inkscape:current-layer="layer1"
     showgrid="true"
     inkscape:window-width="1920"
     inkscape:window-height="1200"
     inkscape:window-x="0"
     inkscape:window-y="0"
     inkscape:window-maximized="1">
    <inkscape:grid
       type="xygrid"
       id="grid2985"
       empspacing="5"
       visible="true"
       enabled="true"
       snapvisiblegridlinesonly="true"
       dotted="false" />
  </sodipodi:namedview>
  <metadata
     id="metadata7">
    <rdf:RDF>
      <cc:Work
         rdf:about="">
        <dc:format>image/svg+xml</dc:format>
        <dc:type
           rdf:resource="http://purl.org/dc/dcmitype/StillImage" />
        <dc:title />
      </cc:Work>
    </rdf:RDF>
  </metadata>
  <g
     inkscape:label="Layer 1"
     inkscape:groupmode="layer"
     id="layer1"
     transform="translate(0,-1028.3622)">
    <path
       style="fill:#000000;fill-opacity:1;stroke:none"
       d="m 2,1032.3622 2,-2 18,18 -2,2 z"
       id="path3779"
       inkscape:connector-curvature="0"
       clip-path="url(#clipPath3814)" />
    <g
       id="g3768"
       mask="none"
       clip-path="url(#clipPath3022)">
      <path
         sodipodi:nodetypes="cccccc"
         inkscape:connector-curvature="0"
         id="path2991"
         d="m 17,1030.3622 5,5 -12,12 -7,2 2,-7 z"
         style="fill:none;stroke:#000000;stroke-width:1px;stroke-linecap:butt;stroke-linejoin:miter;stroke-opacity:1" />
      <path
         style="fill:#000000;stroke:none;stroke-width:1px;stroke-linecap:butt;stroke-linejoin:miter;stroke-opacity:1;fill-opacity:1"
         d="m 17,1030.3622 5,5 -12,12 -5,-5 z"
         id="path2993"
         inkscape:connector-curvature="0"
         sodipodi:nodetypes="ccccc" />
      <path
         style="fill:#000000;stroke:none;stroke-width:1px;stroke-linecap:butt;stroke-linejoin:miter;stroke-opacity:1;fill-opacity:1"
         d="m 6,1048.3622 -3,1 1,-3 z"
         id="path3763"
         inkscape:connector-curvature="0"
         sodipodi:nodetypes="cccc" />
    </g>
  </g>
</svg>
