<?xml version="1.0" encoding="UTF-8" standalone="no"?>
<svg width="64" height="64" version="1.1" xmlns="http://www.w3.org/2000/svg">
  <path style="fill:#0096db;fill-opacity:1;stroke:none" d="M 28.761567,2 C 17.046,2 5.7341934,10.021316 2,14.071173 l 2.4483986,4.327403 0.5124555,-0.227758 0.7402136,-3.188611 c 0,0 1.9200187,-2.052472 5.0676153,-4.384342 l 0,32.512455 c 0,0.472445 -0.324708,0.797152 -0.797153,0.797152 l -0.7971528,0 0,1.708186 8.5409258,0 0,-1.708186 -0.797153,0 c -0.472446,0 -0.854094,-0.324707 -0.854094,-0.797152 l 0,-7.572954 c 2.919582,1.116403 7.78042,2.676157 12.697511,2.676157 C 37.629599,38.213523 50,32.147762 50,20.106761 50,9.562234 40.477134,2 28.761567,2 z m -0.284699,2.277579 c 13.261373,0.244075 15.430604,11.622978 15.430604,15.772243 0,4.149262 -2.470243,15.259786 -15.487543,15.259786 -6.412934,0 -10.184199,-1.2631 -12.355873,-2.505338 l 0,-25.508897 c 3.49939,-1.738667 7.712789,-3.104297 12.412812,-3.017794 z"/>
  <path style="fill:#0096db;fill-opacity:1;stroke:none" d="m 36.75,46.75 0,5.5 10,0 0,10 5.5,0 0,-10 10,0 0,-5.5 -10,0 0,-10 -5.5,0 0,10 -10,0 z"/>
</svg>
