<?xml version="1.0" encoding="UTF-8" standalone="no"?>
<svg width="64" height="64" xmlns="http://www.w3.org/2000/svg">
  <path
     style="fill:#adc1d8;fill-opacity:1;stroke:none"
     d="M 35.5 0.25 C 27.765496 0.25 20.320898 2.853271 14.1875 6.09375 C 8.0541018 9.334229 3.2629853 13.178192 0.71875 15.9375 A 1.7580678 1.7580678 0 0 0 0.46875 18 L 3.53125 23.40625 A 1.7580678 1.7580678 0 0 0 5.75 24.15625 L 6.40625 23.875 A 1.7580678 1.7580678 0 0 0 7.4375 22.625 L 8.21875 19.125 C 8.4793463 18.852164 9.5690754 17.884305 11.21875 16.46875 L 11.21875 52.71875 L 10.96875 52.71875 A 1.7580678 1.7580678 0 0 0 9.21875 54.46875 L 9.21875 56.59375 A 1.7580678 1.7580678 0 0 0 10.96875 58.34375 L 21.6875 58.34375 A 1.7580678 1.7580678 0 0 0 23.4375 56.59375 L 23.4375 54.46875 A 1.7580678 1.7580678 0 0 0 21.6875 52.71875 L 21.34375 52.71875 L 21.34375 46.375 C 23.587772 47.153832 26.254917 47.967881 29.1875 48.5 L 29.1875 43.75 A 4.2388949 4.2388949 0 0 1 29.75 41.65625 C 25.772565 41.199754 23.149943 40.257654 21.34375 39.34375 L 21.34375 9.8125 C 25.356352 7.939962 29.992393 6.4992854 35.125 6.59375 C 42.924257 6.737295 47.070371 9.9965115 49.5625 13.84375 C 52.054629 17.690988 52.71875 22.302691 52.71875 24.59375 C 52.71875 25.94942 52.428647 28.128576 51.65625 30.46875 A 4.2388949 4.2388949 0 0 1 53.1875 33.75 L 53.1875 39.5 L 58.03125 39.5 C 61.51409 35.672976 63.84375 30.683761 63.84375 24.65625 C 63.84375 10.397621 50.921164 0.25 35.5 0.25 z"/>
  <path
     style="fill:#adc1d8;fill-opacity:1;stroke:none"
     d="M 46.65625,35.875 A 0.87679999,0.87679999 0 0 0 45.875,36.75 l 0,9.125 -9.125,0 a 0.87679999,0.87679999 0 0 0 -0.875,0.875 l 0,5.5 a 0.87679999,0.87679999 0 0 0 0.875,0.875 l 9.125,0 0,9.125 a 0.87679999,0.87679999 0 0 0 0.875,0.875 l 5.5,0 a 0.87679999,0.87679999 0 0 0 0.875,-0.875 l 0,-9.125 9.125,0 a 0.87679999,0.87679999 0 0 0 0.875,-0.875 l 0,-5.5 A 0.87679999,0.87679999 0 0 0 62.25,45.875 l -9.125,0 0,-9.125 A 0.87679999,0.87679999 0 0 0 52.25,35.875 l -5.5,0 a 0.87679999,0.87679999 0 0 0 -0.09375,0 z"
     transform="translate(-3.3189824,-3.0058708)"/>
</svg>
