<?xml version="1.0" encoding="UTF-8" standalone="no"?>
<svg width="1000" height="1000" viewBox="0 0 24 24" xmlns="http://www.w3.org/2000/svg">
  <path
      fill="#000"
      d="M 3 1.5 A 0.50005 0.50005 0 0 0 2.5 2 L 2.5 22 A 0.50005 0.50005 0 0 0 3 22.5 L 21 22.5 A 0.50005 0.50005 0 0 0 21.5 22 L 21.5 2 A 0.50005 0.50005 0 0 0 21 1.5 L 3 1.5 z M 4.0410156 2.5 L 20.328125 2.5 L 17.628906 11.5 L 11.240234 11.5 L 4.0410156 2.5 z M 3.5 3.4257812 L 10.5 12.175781 L 10.5 16.722656 L 3.5 21.097656 L 3.5 3.4257812 z M 20.5 5.40625 L 20.5 20.193359 L 18.5 16.859375 L 18.5 12.072266 L 20.5 5.40625 z M 11.5 12.5 L 17.5 12.5 L 17.5 16.5 L 11.5 16.5 L 11.5 12.5 z M 11.144531 17.5 L 17.714844 17.5 L 20.115234 21.5 L 4.7441406 21.5 L 11.144531 17.5 z "
      />
</svg>
