<?xml version="1.0" encoding="UTF-8" standalone="no"?>
<svg width="24" height="24" xmlns="http://www.w3.org/2000/svg">
  <path
     style="fill:#000000;stroke:none"
     d="M 16.992188 1.484375 A 0.51640113 0.51640113 0 0 0 16.634766 1.6347656 L 4.6347656 13.634766 A 0.51640113 0.51640113 0 0 0 4.5039062 13.857422 L 2.5039062 20.857422 A 0.51640113 0.51640113 0 0 0 3.1425781 21.496094 L 10.142578 19.496094 A 0.51640113 0.51640113 0 0 0 10.365234 19.365234 L 22.365234 7.3652344 A 0.51640113 0.51640113 0 0 0 22.365234 6.6347656 L 17.365234 1.6347656 A 0.51640113 0.51640113 0 0 0 16.992188 1.484375 z M 5.3789062 14.378906 L 9.6210938 18.621094 L 5.7324219 19.732422 L 4.2675781 18.267578 L 5.3789062 14.378906 z"
     />
</svg>
