<?xml version="1.0" encoding="UTF-8" standalone="no"?>
<svg width="1000" height="1000" viewBox="0 0 24 24" xmlns="http://www.w3.org/2000/svg">
  <path
      fill="#000"
      d="M 16.992188 1.5 C 16.8623 1.50207 16.738317 1.554606 16.646484 1.6464844 L 4.6464844 13.646484 C 4.5864064 13.706764 4.5427099 13.781389 4.5195312 13.863281 L 2.5195312 20.863281 C 2.4132008 21.239556 2.7604435 21.586799 3.1367188 21.480469 L 10.136719 19.480469 C 10.218609 19.457289 10.293232 19.413599 10.353516 19.353516 L 22.353516 7.3535156 C 22.5487 7.1582507 22.5487 6.8417493 22.353516 6.6464844 L 17.353516 1.6464844 C 17.257854 1.5507785 17.127489 1.4979278 16.992188 1.5 z M 5.4042969 14.404297 L 9.5957031 18.595703 L 5.7070312 19.707031 L 4.2929688 18.292969 L 5.4042969 14.404297 z "
      />
</svg>
