<?xml version="1.0" encoding="UTF-8" standalone="no"?>
<svg width="1000" height="1000" viewBox="0 0 24 24" xmlns="http://www.w3.org/2000/svg">
  <path
     fill="#000"
     d="m 12.009766,2.6191406 a 0.50005,0.50005 0 0 0 -0.478516,0.328125 l -2.3203125,6.3320313 -6.7402344,0.25 A 0.50005,0.50005 0 0 0 2.1816406,10.421875 l 5.3046875,4.164063 -1.8457031,6.486328 a 0.50005,0.50005 0 0 0 0.7597656,0.550781 L 12,17.865234 l 5.599609,3.757813 a 0.50005,0.50005 0 0 0 0.759766,-0.550781 l -1.845703,-6.486328 5.304687,-4.164063 A 0.50005,0.50005 0 0 0 21.529297,9.5292969 l -6.740235,-0.25 L 12.46875,2.9472656 A 0.50005,0.50005 0 0 0 12.009766,2.6191406 Z M 12,4.5703125 13.966797,9.9375 a 0.50005,0.50005 0 0 0 0.451172,0.328125 l 5.710937,0.210937 -4.496094,3.529297 a 0.50005,0.50005 0 0 0 -0.171874,0.529297 l 1.5625,5.498047 -4.744141,-3.185547 a 0.50005,0.50005 0 0 0 -0.558594,0 l -4.7441405,3.185547 1.5625,-5.498047 A 0.50005,0.50005 0 0 0 8.3671875,14.005859 L 3.8710938,10.476562 9.5820312,10.265625 A 0.50005,0.50005 0 0 0 10.033203,9.9375 L 12,4.5703125 Z"
     />
</svg>
