<?xml version="1.0" encoding="UTF-8" standalone="no"?>
<svg width="1000" height="1000" viewBox="0 0 24 24" xmlns="http://www.w3.org/2000/svg">
  <path
      fill="#000"
      d="m 12.009766,2.6191406 c -0.21314,-0.0038 -0.405257,0.1279339 -0.478516,0.328125 l -2.3203125,6.3320313 -6.7402344,0.25 C 2.0064918,9.5480756 1.8165673,10.134531 2.1816406,10.421875 l 5.3046875,4.164063 -1.8457031,6.486328 c -0.125865,0.447495 0.3736114,0.809583 0.7597656,0.550781 L 12,17.865234 l 5.599609,3.757813 c 0.386154,0.258802 0.885631,-0.103286 0.759766,-0.550781 l -1.845703,-6.486328 5.304687,-4.164063 c 0.365073,-0.287343 0.175149,-0.8737989 -0.289062,-0.8925781 l -6.740235,-0.25 L 12.46875,2.9472656 C 12.397961,2.7537804 12.215748,2.6235174 12.009766,2.6191406 Z"
      />
</svg>
