<?xml version="1.0" encoding="UTF-8"?>
<svg width="24" height="24" viewBox="0 0 24 24" xmlns="http://www.w3.org/2000/svg">
  <defs>
    <clipPath clipPathUnits="userSpaceOnUse" id="pp-icon-cogwheel-clip">
      <path d="M 12,0 C 5.372583,0 0,5.3726 0,12 0,18.6274 5.372583,24 12,24 18.627417,24 24,18.6274 24,12 24,5.3726 18.627417,0 12,0 z m 0,9 c 1.656854,0 3,1.3431 3,3 0,1.6569 -1.343146,3 -3,3 -1.656854,0 -3,-1.3431 -3,-3 0,-1.6569 1.343146,-3 3,-3 z"/>
    </clipPath>
  </defs>
  <g clip-path="url(#pp-icon-cogwheel-clip)">
    <path d="M 20,12 A 8,8 0 0 1 4,12 8,8 0 1 1 20,12 z" fill="#000000"/>
    <rect x="10" y="2" width="4" height="20" fill="#000000"/>
    <rect x="-14" y="2" height="20" width="4" transform="matrix(0,-1,1,0,0,0)" fill="#000000"/>
    <rect height="20" width="4" y="-10" x="14.970563" fill="#000000"
          transform="matrix(0.70710678,0.70710678,-0.70710678,0.70710678,0,0)"/>
    <rect height="20" width="4" y="6.9705629" x="-2" fill="#000000"
          transform="matrix(0.70710678,-0.70710678,0.70710678,0.70710678,0,0)"/>
  </g>
</svg>
