<?xml version="1.0" encoding="UTF-8"?>
<svg width="24" height="24" viewBox="0 0 24 24">
  <path style="fill:#000000" d="M 10 2 L 10 4.25 A 8 8 0 0 0 7.96875 5.125 L 6.34375 3.5 L 3.5 6.34375 L 5.09375 7.9375 A 8 8 0 0 0 4.25 10 L 2 10 L 2 14 L 4.28125 14 A 8 8 0 0 0 5.125 16.03125 L 3.5 17.65625 L 6.34375 20.5 L 7.9375 18.90625 A 8 8 0 0 0 7.96875 18.90625 A 8 8 0 0 0 10 19.71875 L 10 22 L 14 22 L 14 19.75 A 8 8 0 0 0 16.03125 18.875 L 17.65625 20.5 L 20.5 17.65625 L 18.90625 16.0625 A 8 8 0 0 0 19.75 14 L 22 14 L 22 10 L 19.71875 10 A 8 8 0 0 0 18.875 7.96875 L 20.5 6.34375 L 17.65625 3.5 L 16.0625 5.09375 L 16.03125 5.09375 A 8 8 0 0 0 14 4.28125 L 14 2 L 10 2 z M 12 9 C 13.656854 9 15 10.3431 15 12 C 15 13.6569 13.656854 15 12 15 C 10.343146 15 9 13.6569 9 12 C 9 10.3431 10.343146 9 12 9 z "/>
</svg>
