<?xml version="1.0" encoding="UTF-8"?>
<svg width="24" height="24" viewBox="0 0 24 24" xmlns="http://www.w3.org/2000/svg">
  <defs>
    <clipPath id="pp-icon-manga-progress-clip" class="pp-indicator-progress">
      <path d="M 12,12 12,0 24,0 24,24 0,24 0,0 12,0 Z"/>
    </clipPath>
  </defs>
  <path d="M 22,2 22,22 2,22 2,2 Z" fill="none" stroke="#000" stroke-width="2" opacity="0.5"/>
  <path
      d="M 22,2 22,22 2,22 2,2 Z"
      clip-path="url(#pp-icon-manga-progress-clip)"
      fill="none"
      stroke="#000"
      stroke-width="2"
      />
  <g>
    <path
        class="pp-indicator-num pp-indicator-num-0"
        data-digit="1"
        fill="#000"
        d="m 0.04101562,-8.859375 q 1.58203128,0 2.43164068,1.4648438 0.6738281,1.1601562 0.6738281,3 0,1.8222656 -0.6738281,3.0058593 Q 1.6347656,0.05859375 0,0.05859375 q -1.6289062,0 -2.4667969,-1.44726565 -0.6738281,-1.1835937 -0.6738281,-3.0175781 0,-2.5546875 1.2363281,-3.7207031 0.7851563,-0.7324219 1.94531252,-0.7324219 z M 0,-7.9921875 q -0.9375,0 -1.4765625,0.9492188 -0.5507813,0.9609375 -0.5507813,2.6542968 0,1.6582031 0.5390626,2.6132813 Q -0.94335938,-0.83789063 0,-0.83789063 q 1.1308594,0 1.6757812,-1.31835937 0.3574219,-0.8847656 0.3574219,-2.296875 0,-1.6464844 -0.5507812,-2.5898437 Q 0.92578125,-7.9921875 0,-7.9921875 Z"
        />
    <path
        class="pp-indicator-num pp-indicator-num-1"
        data-digit="1"
        fill="#000"
        d="m 0.83789063,-0.1171875 -1.05468751,0 0,-7.5761719 q -0.99023432,0.3398438 -2.08593752,0.5742188 l -0.1933594,-0.8144531 q 1.57031255,-0.3925782 2.66601567,-0.9316407 l 0.66796876,0 0,8.7480469 z"
        />
    <path
        class="pp-indicator-num pp-indicator-num-2"
        data-digit="1"
        fill="#000"
        d="m 3.0820313,-0.1171875 -6.0234376,0 0,-0.9960937 q 0.7089844,-1.6523438 2.71289067,-3.0175782 L 0.10546875,-4.3535156 Q 1.1308594,-5.0566406 1.453125,-5.4492187 1.8222656,-5.90625 1.8222656,-6.4570312 q 0,-0.609375 -0.4335937,-1.0429688 -0.48046877,-0.4804687 -1.25976565,-0.4804687 -1.56445315,0 -2.05078125,1.7402343 L -2.8476563,-6.5742187 Q -2.1796875,-8.859375 0.1875,-8.859375 q 1.2949219,0 2.0625,0.7675781 0.6738281,0.6914063 0.6738281,1.6699219 0,0.7265625 -0.4335937,1.3183594 -0.3984375,0.5742187 -1.8339844,1.4707031 l -0.25195312,0.1523437 q -1.82812498,1.1308594 -2.34960938,2.4140626 l 5.0273438,0 0,0.9492187 z"
        />
    <path
        class="pp-indicator-num pp-indicator-num-3"
        data-digit="1"
        fill="#000"
        d="m 0.68554687,-4.5351562 q 2.10937503,0.375 2.10937503,2.1328124 0,1.0605469 -0.7089844,1.72851568 -0.7851563,0.73242187 -2.22070312,0.73242187 -2.15039068,0 -3.10546878,-1.71093745 l 0.8789063,-0.4687501 q 0.6621094,1.29492192 2.21484373,1.29492192 0.91406249,0 1.41796877,-0.46875002 0.4804687,-0.4453125 0.4804687,-1.1308594 0,-0.796875 -0.7207031,-1.2832031 Q 0.375,-4.1542969 -0.69726562,-4.1542969 l -0.52734378,0 0,-0.8496093 0.55078128,0 q 1.078125,0 1.64648437,-0.4101563 0.60937495,-0.4335937 0.60937495,-1.1660156 0,-0.796875 -0.68554682,-1.1777344 -0.43945313,-0.2636719 -1.0546875,-0.2636719 -1.30664058,0 -1.92773438,1.3125 l -0.8789063,-0.421875 q 0.8613282,-1.7285156 2.81835943,-1.7285156 1.23632807,0 2.00390627,0.6269531 Q 2.625,-7.6289062 2.625,-6.6269531 q 0,0.9492187 -0.7441406,1.5527344 Q 1.4003906,-4.6875 0.68554687,-4.5820312 l 0,0.046875 z"
        />
    <path
        class="pp-indicator-num pp-indicator-num-4"
        data-digit="1"
        fill="#000"
        d="m 3.3691406,-2.1738281 -1.4179687,0 0,2.0566406 -0.96093752,0 0,-2.0566406 -4.40039068,0 0,-0.9609375 4.2304688,-5.6367188 1.1308594,0 0,5.7070313 1.4179687,0 0,0.890625 z m -2.3203125,-5.53125 -0.035156,0 q -0.5214844,0.84375 -1.04296878,1.546875 l -2.32617192,3.09375 3.34570318,0 0,-2.8300781 q 0,-0.6152344 0.0585937,-1.8105469 z"
        />
    <path
        class="pp-indicator-num pp-indicator-num-5"
        data-digit="1"
        fill="#000"
        d="m -1.5703125,-4.8808594 q 0.85546875,-0.6738281 1.86328125,-0.6738281 1.20703125,0 2.00390625,0.8144531 0.7441406,0.7792969 0.7441406,1.9335938 0,1.0488281 -0.6386718,1.8457031 -0.8027344,1.01953125 -2.37304692,1.01953125 -2.00976558,0 -2.92968748,-1.52929685 l 0.8789062,-0.4570313 q 0.6972657,1.11328127 2.01562502,1.11328127 0.84960938,0 1.41796878,-0.52734377 0.5859375,-0.5566406 0.5859375,-1.4765625 0,-0.8671875 -0.515625,-1.3828125 -0.53906252,-0.5390625 -1.40625003,-0.5390625 -1.21874997,0 -1.84570307,0.9375 l -0.9023438,-0.1171875 0.5507812,-4.7695312 4.7285157,0 0,0.9023437 -3.8730469,0 -0.3867187,2.90625 0.082031,0 z"
        />
    <path
        class="pp-indicator-num pp-indicator-num-6"
        data-digit="1"
        fill="#000"
        d="m -1.7988281,-4.3652344 q 0.84960935,-1.2246093 2.20898435,-1.2246093 1.25976565,0 2.02734375,0.8789062 0.6738281,0.7617187 0.6738281,1.8574219 0,1.1953125 -0.7558593,2.03906247 -0.7851563,0.87304688 -2.0507813,0.87304688 -1.5058594,0 -2.3554688,-1.14843745 -0.8261718,-1.1191407 -0.8261718,-3.0878907 0,-2.2441406 0.9960937,-3.5273437 0.90234377,-1.1542969 2.36132815,-1.1542969 1.72265625,0 2.50781255,1.3125 l -0.8613282,0.46875 q -0.4804687,-0.9140625 -1.59374998,-0.9140625 -2.21484372,0 -2.37890622,3.6269531 l 0.046875,0 z M 0.234375,-4.7753906 q -0.85546875,0 -1.4179687,0.6386719 Q -1.6875,-3.5625 -1.6875,-2.8886719 q 0,0.7207031 0.4453125,1.3066407 0.59765625,0.77929682 1.51171875,0.77929682 0.95507815,0 1.46484375,-0.77929682 0.3457031,-0.5332032 0.3457031,-1.2363282 0,-0.8261719 -0.4570312,-1.359375 Q 1.0957031,-4.7753906 0.234375,-4.7753906 Z"
        />
    <path
        class="pp-indicator-num pp-indicator-num-7"
        data-digit="1"
        fill="#000"
        d="m 2.9648438,-7.9921875 q -2.54882817,4.0429687 -3.4101563,7.875 l -1.2128906,0 q 0.84960935,-3.328125 3.4101562,-7.6230469 l -4.7285156,0 0,-0.9492187 5.9414063,0 0,0.6972656 z"
        />
    <path
        class="pp-indicator-num pp-indicator-num-8"
        data-digit="1"
        fill="#000"
        d="m 0.984375,-4.546875 q 2.1738281,0.7382812 2.1738281,2.3027344 0,1.2304687 -1.125,1.87499997 Q 1.2128906,0.10546875 0,0.10546875 q -1.21875,0 -2.0390625,-0.47460938 -1.0898438,-0.62695312 -1.0898438,-1.83984377 0,-1.5175781 1.9921876,-2.2558593 l 0,-0.035156 q -1.7402344,-0.6269531 -1.7402344,-2.0742187 0,-1.1132813 0.9375,-1.7812501 0.796875,-0.5625 1.94531248,-0.5625 1.28320312,0 2.08593752,0.6621094 0.7910156,0.6269532 0.7910156,1.5703125 0,1.6113282 -1.8984375,2.1035157 l 0,0.035156 z m -0.96679687,-0.375 q 1.82226557,-0.4335937 1.82226557,-1.6933594 0,-0.7265625 -0.6035156,-1.1660156 Q 0.74414062,-8.1503906 0,-8.1503906 q -0.76757812,0 -1.2832031,0.4101562 -0.5273438,0.4335938 -0.5273438,1.1425782 0,0.6972656 0.5683594,1.1132812 0.26367187,0.2167969 0.69140625,0.3867188 Q -0.10546875,-4.9160156 0,-4.9160156 q 0.00585938,0 0.01757813,-0.00586 z m -0.08789063,0.7851563 q -1.9804688,0.5214843 -1.9804688,1.8574218 0,0.8261719 0.7324219,1.2363282 0.55078128,0.31054683 1.30664065,0.31054683 1.06054685,0 1.63476565,-0.57421873 0.421875,-0.421875 0.421875,-1.03125 0,-0.6445313 -0.5917969,-1.125 -0.3398438,-0.2695313 -0.82617188,-0.46875 -0.52148437,-0.2050781 -0.67382812,-0.2050781 -0.01171875,0 -0.0234375,0 z"
        />
    <path
        class="pp-indicator-num pp-indicator-num-9"
        data-digit="1"
        fill="#000"
        d="m 1.8164062,-4.4179687 q -0.82617182,1.2011718 -2.19726558,1.2011718 -1.04882812,0 -1.81054692,-0.6386719 -0.9023437,-0.7558593 -0.9023437,-2.0742187 0,-1.21875 0.7558594,-2.0683594 0.7734375,-0.8613281 2.06249997,-0.8613281 1.74609373,0 2.57226563,1.453125 0.5976563,1.0722656 0.5976563,2.7714844 0,2.2910156 -0.9726563,3.5332031 -0.9140625,1.16015625 -2.38476563,1.16015625 -1.70507817,0 -2.58398437,-1.37695315 l 0.8671875,-0.46875 q 0.5683594,0.98437502 1.6875,0.98437502 2.1914062,0 2.3554687,-3.61523432 l -0.046875,0 z m -2.05664058,-3.6035157 q -0.82031252,0 -1.34179682,0.6152344 -0.4687501,0.5566406 -0.4687501,1.40625 0,0.8613281 0.4453126,1.3535156 0.515625,0.5917969 1.40039057,0.5917969 0.984375,0 1.54101563,-0.7675781 0.3691406,-0.515625 0.3691406,-1.1191406 0,-0.7207032 -0.4335937,-1.3007813 -0.59765628,-0.7792969 -1.51171878,-0.7792969 z"
        />
  </g>
</svg>
