<?xml version="1.0" encoding="UTF-8"?>
<svg width="24" height="24" viewBox="0 0 24 24">
  <path style="fill:#000000" d="M 17 2 L 10.5 8.5 L 15.5 13.5 L 22 7 L 17 2 z M 8.5 10.5 L 5 14 L 10 19 L 13.5 15.5 L 8.5 10.5 z"/>
  <path style="fill:#000000" d="M 4 2 L 2 4 L 8.125 10.125 L 10.125 8.125 L 4 2 z M 15.875 13.875 L 13.875 15.875 L 20 22 L 22 20 L 15.875 13.875 z"/>
  <path style="stroke:#000000;stroke-width:1px;stroke-linecap:butt;stroke-linejoin:miter;fill:none"
        d="M 15.5,13.5 22,7 17,2 10.5,8.5 m -2,2 -3.5,3.5 -2,7 7,-2 3.5,-3.5"/>
  <path style="fill:#000000" d="M 6,20 3,21 4,18 z" />
</svg>
