<?xml version="1.0" encoding="UTF-8"?>
<svg width="24" height="24" viewBox="0 0 24 24">
  <defs>
    <clipPath clipPathUnits="userSpaceOnUse" id="pp-icon-pencil-off-clip1">
      <path d="m 0,0 0,24 24,0 0,-24 -24,0 z m 3,1 20,20 -2,2 -20,-20 2,-2 z"/>
    </clipPath>
    <clipPath clipPathUnits="userSpaceOnUse" id="pp-icon-pencil-off-clip2">
      <path d="m 0,0 0,24 24,0 0,-24 -24,0 z m 16.875,1.4688 a 0.53576784,0.53576784 0 0 1 0.5,0.1562 l 5,5 a 0.53576784,0.53576784 0 0 1 0,0.75 l -12,12 a 0.53576784,0.53576784 0 0 1 -0.75,0 l -5,-5 a 0.53576784,0.53576784 0 0 1 0,-0.75 l 12,-12 a 0.53576784,0.53576784 0 0 1 0.25,-0.1562 z"/>
    </clipPath>
  </defs>
  <g clip-path="url(#pp-icon-pencil-off-clip1)">
    <path d="m 17,2 5,5 -12,12 -7,2 2,-7 z" style="fill:none;stroke:#000000;stroke-width:1;stroke-linecap:butt;stroke-linejoin:miter"/>
    <path d="m 17,2 5,5 -12,12 -5,-5 z" style="fill:#000000;stroke:none"/>
    <path d="m 6,20 -3,1 1,-3 z" style="fill:#000000;stroke:none"/>
  </g>
  <path d="m 2,4 2,-2 18,18 -2,2 z" style="fill:#000000" clip-path="url(#pp-icon-pencil-off-clip2)"/>
</svg>
