<?xml version="1.0" encoding="UTF-8" standalone="no"?>
<svg width="64" height="64" xmlns="http://www.w3.org/2000/svg">
  <path
     fill="#0096db" stroke="none"
     d="M 35.5 4.25 C 20.834285 4.25 6.6745171 14.274081 2 19.34375 L 5.0625 24.75 L 5.71875 24.46875 L 6.625 20.5 C 6.625 20.5 9.0285429 17.919069 12.96875 15 L 12.96875 55.6875 C 12.96875 56.278913 12.560164 56.6875 11.96875 56.6875 L 10.96875 56.6875 L 10.96875 58.84375 L 21.6875 58.84375 L 21.6875 56.6875 L 20.6875 56.6875 C 20.096085 56.6875 19.59375 56.278913 19.59375 55.6875 L 19.59375 46.21875 C 22.44291 47.308224 26.783844 48.736439 31.46875 49.3125 L 31.46875 45.8125 C 25.605491 45.419277 21.873025 44.116287 19.59375 42.8125 L 19.59375 10.875 C 23.974337 8.6985119 29.272693 6.9854643 35.15625 7.09375 C 51.757027 7.3992866 54.46875 21.64964 54.46875 26.84375 C 54.46875 28.493303 54.135116 31.004765 53.1875 33.6875 A 3.3223661 3.3223661 0 0 1 53.59375 35.25 L 53.59375 41.9375 L 55.34375 41.9375 C 59.341777 38.253018 62.09375 33.243634 62.09375 26.90625 C 62.09375 13.706459 50.165716 4.25 35.5 4.25 z"/>
  <path
     fill="#0096db" stroke="none"
     d="m 34.783898,45.258475 0,5.5 10,0 0,10 5.5,0 0,-10 10,0 0,-5.5 -10,0 0,-10 -5.5,0 0,10 -10,0 z"/>
</svg>
