<?xml version="1.0" encoding="UTF-8" standalone="no"?>
<svg width="64" height="64" xmlns="http://www.w3.org/2000/svg">
  <path
     fill="#0096db" stroke="none"
     d="M 35.46875 2.96875 C 27.726332 2.96875 20.268311 5.5694455 14.125 8.8125 C 7.9816893 12.055554 3.1693695 15.896797 0.625 18.65625 A 1.6964403 1.6964403 0 0 0 0.40625 20.65625 L 3.46875 26.09375 A 1.6964403 1.6964403 0 0 0 5.59375 26.8125 L 6.25 26.53125 A 1.6964403 1.6964403 0 0 0 7.25 25.34375 L 8.0625 21.84375 C 8.30215 21.588868 9.4598501 20.546659 11.1875 19.0625 L 11.1875 55.59375 L 10.875 55.59375 A 1.6964403 1.6964403 0 0 0 9.1875 57.28125 L 9.1875 59.4375 A 1.6964403 1.6964403 0 0 0 10.875 61.125 L 21.59375 61.125 A 1.6964403 1.6964403 0 0 0 23.28125 59.4375 L 23.28125 57.28125 A 1.6964403 1.6964403 0 0 0 21.59375 55.59375 L 21.21875 55.59375 L 21.21875 49.09375 C 23.22088 49.787227 25.558717 50.480992 28.125 51 C 28.029485 50.658969 27.882993 50.132621 27.90625 50.25 C 27.93922 50.416397 27.781418 48.955369 27.78125 49.125 L 27.78125 44.1875 C 24.836148 43.69468 22.722443 42.950399 21.21875 42.1875 L 21.21875 12.5 C 25.256674 10.610532 29.913138 9.1234019 35.09375 9.21875 C 42.937142 9.3631073 47.115067 12.633053 49.625 16.5 C 52.134933 20.366947 52.8125 25.003044 52.8125 27.3125 C 52.8125 27.847461 52.757827 28.535406 52.65625 29.28125 C 52.86746 29.459158 53.084072 29.646572 53.03125 29.59375 C 52.911303 29.473803 53.844207 30.578567 53.75 30.4375 C 53.655793 30.296433 54.346087 31.594251 54.28125 31.4375 C 54.216413 31.280749 54.62672 32.666397 54.59375 32.5 C 54.56078 32.333603 54.718582 33.794631 54.71875 33.625 L 54.71875 37.90625 L 59 37.90625 C 58.830369 37.906418 60.291397 38.06422 60.125 38.03125 C 59.997288 38.005945 60.63574 38.199548 60.9375 38.28125 C 62.74843 35.172104 63.84375 31.53356 63.84375 27.40625 C 63.84375 13.143076 50.910439 2.96875 35.46875 2.96875 z"/>
  <path
     fill="#0096db" stroke="none"
     d="M 43.34375,32.0625 A 1.5609513,1.5609513 0 0 0 41.9375,33.625 l 0,8.4375 -8.4375,0 a 1.5609513,1.5609513 0 0 0 -1.5625,1.5625 l 0,5.5 A 1.5609513,1.5609513 0 0 0 33.5,50.6875 l 8.4375,0 0,8.4375 A 1.5609513,1.5609513 0 0 0 43.5,60.6875 l 5.5,0 a 1.5609513,1.5609513 0 0 0 1.5625,-1.5625 l 0,-8.4375 8.4375,0 a 1.5609513,1.5609513 0 0 0 1.5625,-1.5625 l 0,-5.5 A 1.5609513,1.5609513 0 0 0 59,42.0625 l -8.4375,0 0,-8.4375 A 1.5609513,1.5609513 0 0 0 49,32.0625 l -5.5,0 a 1.5609513,1.5609513 0 0 0 -0.15625,0 z"/>
</svg>
